<svg width="1108" height="200" viewBox="0 0 1108 200" fill="none" xmlns="http://www.w3.org/2000/svg">
<path d="M896.875 129.08V94.07C896.875 85.77 896.875 79.24 894.575 72.53C892.275 65.82 886.305 55.04 870.435 55.04C854.565 55.04 845.125 67.18 845.125 67.18C841.335 59.98 834.935 55.05 825.255 55.05C815.575 55.05 807.765 58.65 801.115 64.24V56.69H780.035V143.06H801.765C801.615 141.3 801.105 123.47 801.105 116.05V84.91C805.685 78.77 811.165 74.47 819.005 74.47C827.445 74.47 829.065 82.69 829.065 99.88V143.06H850.555C850.395 141.3 849.465 123.47 849.465 116.05V85.87C852.225 81.99 855.425 74.47 865.165 74.47C874.105 74.47 875.775 85.6 875.775 95.22V143.64H899.515L899.675 143.31C899.115 142.69 898.605 142.02 898.165 141.31C897.895 140.81 896.875 139.65 896.875 129.09V129.08Z" fill="#983732"/>
<path d="M1078.82 100.02C1078.82 115.46 1068.9 125.39 1055.79 125.39C1042.68 125.39 1032.76 115.4 1032.76 100.02V98.69C1032.76 83.25 1042.68 73.32 1055.79 73.32C1068.9 73.32 1078.82 83.23 1078.82 98.69V100.02ZM1055.84 54.72C1022.57 54.72 1011.48 78.75 1011.48 98.66V100.61C1011.71 120.42 1022.9 143.95 1055.83 143.95C1088.76 143.95 1099.94 120.42 1100.17 100.61V98.66C1100.19 78.75 1089.1 54.72 1055.84 54.72Z" fill="#414E68"/>
<path d="M956.236 90.4C947.366 90.4 934.496 90.15 934.496 90.15C934.496 90.15 938.256 71.56 957.906 72.08C973.906 72.08 976.306 89.82 976.306 89.82C976.306 89.82 965.086 90.4 956.236 90.4ZM959.396 54.71C934.426 54.71 912.676 71.41 912.676 100.24C912.676 129.07 937.356 143.96 961.566 143.96C981.376 143.96 990.046 137.52 990.046 137.52L991.376 117.55C991.376 117.55 983.096 124.54 964.896 124.54C946.696 124.54 937.256 116.4 934.246 105.87C934.246 105.87 986.876 107.15 997.466 103.55C997.466 103.55 998.476 102.74 998.476 93.87C998.456 79.21 989.116 54.71 959.406 54.71H959.396Z" fill="#414E68"/>
<path d="M534.162 90.4C525.292 90.4 512.422 90.15 512.422 90.15C512.422 90.15 516.182 71.56 535.832 72.08C551.832 72.08 554.232 89.82 554.232 89.82C554.232 89.82 543.012 90.4 534.162 90.4ZM537.322 54.71C512.352 54.71 490.602 71.41 490.602 100.24C490.602 129.07 515.282 143.96 539.492 143.96C559.302 143.96 567.972 137.52 567.972 137.52L569.302 117.55C569.302 117.55 561.022 124.54 542.822 124.54C524.622 124.54 515.182 116.4 512.172 105.87C512.172 105.87 564.802 107.15 575.392 103.55C575.392 103.55 576.402 102.74 576.402 93.87C576.382 79.21 567.042 54.71 537.332 54.71H537.322Z" fill="#414E68"/>
<path d="M457.1 114.63C463.22 112.24 467.88 108.63 471.11 103.8C474.42 98.96 476.08 93.19 476.08 86.48C476.08 79.77 474.54 74.3 471.48 69.53C468.44 64.78 464.01 61.12 458.24 58.58C452.55 56.03 445.84 54.75 438.11 54.75H401.43V143.92H417.99V117.93H438.12C439.66 117.93 440.8 117.9 441.55 117.81L459.78 143.92H477.6C474.68 141.56 472.18 138.73 470.19 135.55L457.1 114.63ZM453.79 99.72C450.05 102.78 444.58 104.32 437.35 104.32H417.99V68.78H437.35C444.58 68.78 450.04 70.3 453.79 73.36C457.54 76.42 459.39 80.79 459.39 86.48C459.39 92.17 457.53 96.58 453.79 99.72Z" fill="#414E68" stroke="#414E68" stroke-width="2" stroke-miterlimit="10"/>
<path d="M627.792 145.79C620.432 145.79 613.242 144.83 606.222 142.9C599.202 140.98 593.592 138.54 589.402 135.6L597.552 119.46C601.632 122.18 606.502 124.39 612.162 126.09C617.942 127.67 623.602 128.47 629.152 128.47C641.832 128.47 648.182 125.13 648.182 118.45C648.182 115.28 646.542 113.07 643.252 111.82C640.082 110.57 634.932 109.38 627.792 108.25C620.322 107.12 614.202 105.81 609.442 104.34C604.802 102.87 600.722 100.32 597.212 96.7C593.812 92.96 592.112 87.81 592.112 81.24C592.112 72.63 595.682 65.78 602.812 60.69C610.062 55.48 619.802 52.88 632.032 52.88C638.262 52.88 644.492 53.62 650.722 55.09C656.952 56.45 662.042 58.32 666.012 60.7L655.942 76.72C654.072 74.45 652.752 74.13 650.042 73.14C644.422 71.08 638.362 70.05 631.872 70.05C625.382 70.05 620.892 71.01 617.602 72.94C614.432 74.75 612.842 77.19 612.842 80.24C612.842 83.64 614.542 86.07 617.942 87.54C621.452 88.9 626.832 90.2 634.082 91.45C641.332 92.58 647.272 93.89 651.922 95.36C656.562 96.83 660.532 99.32 663.812 102.83C667.212 106.34 668.912 111.32 668.912 117.78C668.912 126.27 665.232 133.07 657.872 138.16C650.512 143.26 640.492 145.8 627.802 145.8L627.792 145.79Z" fill="#414E68" stroke="#414E68" stroke-miterlimit="10"/>
<path d="M765.674 55.84V134.47C765.674 136.75 765.264 138.85 766.414 140.82C766.494 140.96 767.034 141.69 767.034 141.69H746.544V130.76C743.324 134.62 739.314 137.62 734.484 139.76C729.664 141.8 724.464 142.81 718.894 142.81C707.424 142.81 698.374 139.65 691.724 133.32C685.184 126.89 681.914 117.4 681.914 104.86V55.83H702.014V102.13C702.014 109.85 703.724 115.63 707.154 119.49C710.694 123.24 715.674 125.12 722.104 125.12C729.284 125.12 734.964 122.92 739.144 118.53C743.434 114.03 745.574 107.6 745.574 99.24V55.83H765.674V55.84Z" fill="#414E68" stroke="#414E68" stroke-miterlimit="10"/>
<path d="M127.1 127.11L72.55 72.96L18 127.11L72.55 181.26L127.1 127.11Z" fill="#983732"/>
<path d="M354.998 127.12L300.448 72.97L245.898 127.12L300.448 181.26L354.998 127.12Z" fill="#983732"/>
<path d="M241.049 127.12L186.499 72.97L131.949 127.12L186.499 181.26L241.049 127.12Z" fill="#414E68"/>
<path d="M184.08 69.93L129.53 15.78L74.9805 69.93L129.53 124.07L184.08 69.93Z" fill="#414E68"/>
<path d="M298.022 69.93L243.472 15.78L188.922 69.93L243.472 124.07L298.022 69.93Z" fill="#414E68"/>
</svg>
