<svg width="1514" height="368" viewBox="0 0 1514 368" fill="none" xmlns="http://www.w3.org/2000/svg">
<path d="M489.6 256V116H550.2C562.733 116 573.533 118.067 582.6 122.2C591.667 126.2 598.667 132 603.6 139.6C608.533 147.2 611 156.267 611 166.8C611 177.2 608.533 186.2 603.6 193.8C598.667 201.267 591.667 207 582.6 211C573.533 215 562.733 217 550.2 217H507.6L522 202.8V256H489.6ZM578.6 256L543.6 205.2H578.2L613.6 256H578.6ZM522 206.4L507.6 191.2H548.4C558.4 191.2 565.867 189.067 570.8 184.8C575.733 180.4 578.2 174.4 578.2 166.8C578.2 159.067 575.733 153.067 570.8 148.8C565.867 144.533 558.4 142.4 548.4 142.4H507.6L522 127V206.4ZM687.87 257.6C675.604 257.6 664.804 255.2 655.47 250.4C646.27 245.6 639.137 239.067 634.07 230.8C629.004 222.4 626.47 212.867 626.47 202.2C626.47 191.4 628.937 181.867 633.87 173.6C638.937 165.2 645.804 158.667 654.47 154C663.137 149.2 672.937 146.8 683.87 146.8C694.404 146.8 703.87 149.067 712.27 153.6C720.804 158 727.537 164.4 732.47 172.8C737.404 181.067 739.87 191 739.87 202.6C739.87 203.8 739.804 205.2 739.67 206.8C739.537 208.267 739.404 209.667 739.27 211H651.87V192.8H722.87L710.87 198.2C710.87 192.6 709.737 187.733 707.47 183.6C705.204 179.467 702.07 176.267 698.07 174C694.07 171.6 689.404 170.4 684.07 170.4C678.737 170.4 674.004 171.6 669.87 174C665.87 176.267 662.737 179.533 660.47 183.8C658.204 187.933 657.07 192.867 657.07 198.6V203.4C657.07 209.267 658.337 214.467 660.87 219C663.537 223.4 667.204 226.8 671.87 229.2C676.67 231.467 682.27 232.6 688.67 232.6C694.404 232.6 699.404 231.733 703.67 230C708.07 228.267 712.07 225.667 715.67 222.2L732.27 240.2C727.337 245.8 721.137 250.133 713.67 253.2C706.204 256.133 697.604 257.6 687.87 257.6ZM796.842 257.6C787.642 257.6 778.776 256.533 770.242 254.4C761.842 252.133 755.176 249.333 750.242 246L760.642 223.6C765.576 226.667 771.376 229.2 778.042 231.2C784.842 233.067 791.509 234 798.042 234C805.242 234 810.309 233.133 813.242 231.4C816.309 229.667 817.842 227.267 817.842 224.2C817.842 221.667 816.642 219.8 814.242 218.6C811.976 217.267 808.909 216.267 805.042 215.6C801.176 214.933 796.909 214.267 792.242 213.6C787.709 212.933 783.109 212.067 778.442 211C773.776 209.8 769.509 208.067 765.642 205.8C761.776 203.533 758.642 200.467 756.242 196.6C753.976 192.733 752.842 187.733 752.842 181.6C752.842 174.8 754.776 168.8 758.642 163.6C762.642 158.4 768.376 154.333 775.842 151.4C783.309 148.333 792.242 146.8 802.642 146.8C809.976 146.8 817.442 147.6 825.042 149.2C832.642 150.8 838.976 153.133 844.042 156.2L833.642 178.4C828.442 175.333 823.176 173.267 817.842 172.2C812.642 171 807.576 170.4 802.642 170.4C795.709 170.4 790.642 171.333 787.442 173.2C784.242 175.067 782.642 177.467 782.642 180.4C782.642 183.067 783.776 185.067 786.042 186.4C788.442 187.733 791.576 188.8 795.442 189.6C799.309 190.4 803.509 191.133 808.042 191.8C812.709 192.333 817.376 193.2 822.042 194.4C826.709 195.6 830.909 197.333 834.642 199.6C838.509 201.733 841.642 204.733 844.042 208.6C846.442 212.333 847.642 217.267 847.642 223.4C847.642 230.067 845.642 236 841.642 241.2C837.642 246.267 831.842 250.267 824.242 253.2C816.776 256.133 807.642 257.6 796.842 257.6ZM912.292 257.6C903.359 257.6 895.359 255.867 888.292 252.4C881.359 248.933 875.959 243.667 872.092 236.6C868.226 229.4 866.292 220.267 866.292 209.2V148.4H897.492V204.6C897.492 213.533 899.359 220.133 903.092 224.4C906.959 228.533 912.359 230.6 919.292 230.6C924.092 230.6 928.359 229.6 932.092 227.6C935.826 225.467 938.759 222.267 940.892 218C943.026 213.6 944.092 208.133 944.092 201.6V148.4H975.292V256H945.692V226.4L951.092 235C947.492 242.467 942.159 248.133 935.092 252C928.159 255.733 920.559 257.6 912.292 257.6ZM1268.14 257.6C1255.88 257.6 1245.08 255.2 1235.74 250.4C1226.54 245.6 1219.41 239.067 1214.34 230.8C1209.28 222.4 1206.74 212.867 1206.74 202.2C1206.74 191.4 1209.21 181.867 1214.14 173.6C1219.21 165.2 1226.08 158.667 1234.74 154C1243.41 149.2 1253.21 146.8 1264.14 146.8C1274.68 146.8 1284.14 149.067 1292.54 153.6C1301.08 158 1307.81 164.4 1312.74 172.8C1317.68 181.067 1320.14 191 1320.14 202.6C1320.14 203.8 1320.08 205.2 1319.94 206.8C1319.81 208.267 1319.68 209.667 1319.54 211H1232.14V192.8H1303.14L1291.14 198.2C1291.14 192.6 1290.01 187.733 1287.74 183.6C1285.48 179.467 1282.34 176.267 1278.34 174C1274.34 171.6 1269.68 170.4 1264.34 170.4C1259.01 170.4 1254.28 171.6 1250.14 174C1246.14 176.267 1243.01 179.533 1240.74 183.8C1238.48 187.933 1237.34 192.867 1237.34 198.6V203.4C1237.34 209.267 1238.61 214.467 1241.14 219C1243.81 223.4 1247.48 226.8 1252.14 229.2C1256.94 231.467 1262.54 232.6 1268.94 232.6C1274.68 232.6 1279.68 231.733 1283.94 230C1288.34 228.267 1292.34 225.667 1295.94 222.2L1312.54 240.2C1307.61 245.8 1301.41 250.133 1293.94 253.2C1286.48 256.133 1277.88 257.6 1268.14 257.6ZM1392.12 257.6C1380.65 257.6 1370.45 255.2 1361.52 250.4C1352.72 245.6 1345.72 239.067 1340.52 230.8C1335.45 222.4 1332.92 212.867 1332.92 202.2C1332.92 191.4 1335.45 181.867 1340.52 173.6C1345.72 165.2 1352.72 158.667 1361.52 154C1370.45 149.2 1380.65 146.8 1392.12 146.8C1403.45 146.8 1413.58 149.2 1422.52 154C1431.45 158.667 1438.45 165.133 1443.52 173.4C1448.58 181.667 1451.12 191.267 1451.12 202.2C1451.12 212.867 1448.58 222.4 1443.52 230.8C1438.45 239.067 1431.45 245.6 1422.52 250.4C1413.58 255.2 1403.45 257.6 1392.12 257.6ZM1392.12 232C1397.32 232 1401.98 230.8 1406.12 228.4C1410.25 226 1413.52 222.6 1415.92 218.2C1418.32 213.667 1419.52 208.333 1419.52 202.2C1419.52 195.933 1418.32 190.6 1415.92 186.2C1413.52 181.8 1410.25 178.4 1406.12 176C1401.98 173.6 1397.32 172.4 1392.12 172.4C1386.92 172.4 1382.25 173.6 1378.12 176C1373.98 178.4 1370.65 181.8 1368.12 186.2C1365.72 190.6 1364.52 195.933 1364.52 202.2C1364.52 208.333 1365.72 213.667 1368.12 218.2C1370.65 222.6 1373.98 226 1378.12 228.4C1382.25 230.8 1386.92 232 1392.12 232Z" fill="#404E68"/>
<path d="M1142 146.8C1150.53 146.8 1158.06 148.533 1164.6 152C1171.26 155.333 1176.46 160.533 1180.2 167.6C1184.06 174.533 1186 183.467 1186 194.4V256H1154.8V199.2C1154.8 190.533 1153 184.133 1149.4 180C1145.8 175.867 1140.73 173.8 1134.2 173.8C1129.66 173.8 1125.6 174.867 1122 177C1118.4 179 1115.6 182.067 1113.6 186.2C1111.6 190.333 1110.6 195.6 1110.6 202V256H1079.4V199.2C1079.4 190.533 1077.6 184.133 1074 180C1070.53 175.867 1065.53 173.8 1059 173.8C1054.46 173.8 1050.4 174.867 1046.8 177C1043.2 179 1040.4 182.067 1038.4 186.2C1036.4 190.333 1035.4 195.6 1035.4 202V256H1004.2V148.4H1034V177.8L1028.4 169.2C1032.13 161.867 1037.4 156.333 1044.2 152.6C1051.13 148.733 1059 146.8 1067.8 146.8C1077.66 146.8 1086.26 149.333 1093.6 154.4C1101.06 159.333 1106 166.933 1108.4 177.2L1097.4 174.2C1101 165.8 1106.73 159.133 1114.6 154.2C1122.6 149.267 1131.73 146.8 1142 146.8Z" fill="#983731"/>
<g clip-path="url(#clip0_708_28254)">
<path d="M165.1 212.33L110.55 158.18L56 212.33L110.55 266.48L165.1 212.33Z" fill="#983732"/>
<path d="M392.998 212.341L338.448 158.191L283.898 212.341L338.448 266.481L392.998 212.341Z" fill="#983732"/>
<path d="M279.049 212.341L224.499 158.191L169.949 212.341L224.499 266.481L279.049 212.341Z" fill="#414E68"/>
<path d="M222.079 155.15L167.529 101L112.969 155.15L167.529 209.29L222.079 155.15Z" fill="#414E68"/>
<path d="M336.022 155.15L281.472 101L226.922 155.15L281.472 209.29L336.022 155.15Z" fill="#414E68"/>
</g>
<defs>
<clipPath id="clip0_708_28254">
<rect width="337" height="165.48" fill="white" transform="translate(56 101)"/>
</clipPath>
</defs>
</svg>
